<?xml version="1.0" encoding="UTF-8" standalone="no"?>
<svg
   xmlns:dc="http://purl.org/dc/elements/1.1/"
   xmlns:cc="http://creativecommons.org/ns#"
   xmlns:rdf="http://www.w3.org/1999/02/22-rdf-syntax-ns#"
   xmlns:svg="http://www.w3.org/2000/svg"
   xmlns="http://www.w3.org/2000/svg"
   xmlns:sodipodi="http://sodipodi.sourceforge.net/DTD/sodipodi-0.dtd"
   xmlns:inkscape="http://www.inkscape.org/namespaces/inkscape"
   version="1.1"
   id="svg2"
   xml:space="preserve"
   width="4000"
   height="4000"
   viewBox="0 0 4000 4000"
   sodipodi:docname="dragon-6720356.ai"><metadata
     id="metadata8"><rdf:RDF><cc:Work
         rdf:about=""><dc:format>image/svg+xml</dc:format><dc:type
           rdf:resource="http://purl.org/dc/dcmitype/StillImage" /></cc:Work></rdf:RDF></metadata><defs
     id="defs6"><clipPath
       clipPathUnits="userSpaceOnUse"
       id="clipPath18"><path
         d="M 0,3000 H 3000 V 0 H 0 Z"
         id="path16" /></clipPath></defs><sodipodi:namedview
     pagecolor="#ffffff"
     bordercolor="#666666"
     borderopacity="1"
     objecttolerance="10"
     gridtolerance="10"
     guidetolerance="10"
     inkscape:pageopacity="0"
     inkscape:pageshadow="2"
     inkscape:window-width="640"
     inkscape:window-height="480"
     id="namedview4" /><g
     id="g10"
     inkscape:groupmode="layer"
     inkscape:label="dragon-6720356"
     transform="matrix(1.3333333,0,0,-1.3333333,0,4000)"><g
       id="g12"><g
         id="g14"
         clip-path="url(#clipPath18)"><g
           id="g20"
           transform="translate(1983.0176,545.46)"><path
             d="m 0,0 c -3.772,8.254 -6.842,15.735 -10.483,22.822 -35.077,68.275 -70.174,136.533 -105.422,204.688 -19.691,38.071 -23.974,39.175 -60.923,16.087 4.541,-42.805 8.465,-86.548 14.5,-129.897 0.986,-7.091 10.491,-15.928 17.398,-18.024 C -101.679,82.547 -66.261,55.928 -39.417,14.987 -29.01,-0.886 -17.985,-6.849 0,0 m -765.447,227.083 c -64.365,0 -123.423,0.212 -182.476,-0.346 -5.559,-0.051 -13.778,-3.11 -16.196,-7.883 -18.596,-36.703 -36.063,-74.175 -54.956,-113.659 56.35,-13.258 99.007,-42.54 126.717,-97.853 2.64,-5.271 12.556,-7.954 19.077,-7.916 40.472,0.233 80.937,1.861 121.411,2.48 30.004,0.459 60.018,0.09 90.027,0.09 0.46,2.881 0.92,5.762 1.38,8.643 -43.213,43.519 -86.425,87.039 -126.973,127.875 7.922,31.907 14.707,59.237 21.989,88.569 M -919.51,1584.388 c 13.964,0.812 27.923,1.75 41.892,2.416 160.981,7.677 318.495,-14.073 470.851,-76.749 58.755,-24.171 113.867,-56.751 160.604,-105.872 7.951,-8.357 16.669,-15.705 7.031,-30.853 -48.39,-76.06 -57.48,-237.084 -43.56,-310.845 7.497,33.423 16.297,72.657 25.099,111.89 2.179,-0.723 4.358,-1.447 6.536,-2.17 9.371,-102.426 28.219,-172.318 57.689,-213.919 -49.328,207.076 -33.494,326.255 62.186,457.757 -242.377,187.438 -509.128,217.044 -788.328,168.345 M -268.775,5.475 c -32.081,87.546 -62.424,171.281 -93.926,254.425 -2.339,6.171 -12.661,9.726 -19.847,11.73 -34.476,9.622 -69.499,16.843 -103.63,27.829 -21.361,6.875 -41.487,18.911 -62.166,28.631 -1.13,-1.774 -2.26,-3.548 -3.39,-5.321 15.391,-16.717 30.781,-33.435 51.714,-56.172 -18.999,-18.958 -36.49,-36.396 -53.967,-53.853 -38.21,-38.167 -37.565,-37.909 -20.369,-94.481 5.097,-16.769 11.868,-24.293 27.506,-26.122 48.833,-5.712 90.403,-28.538 121.508,-74.369 3.987,-5.873 11.71,-11.627 17.796,-11.763 44.567,-0.991 89.156,-0.534 138.771,-0.534 m 143.868,392.108 c 7.87,2.497 18.307,2.108 23.196,7.957 33.346,39.889 65.646,80.96 97.961,121.991 5.4,6.858 9.233,15.374 13.791,23.125 2.492,-1.731 4.984,-3.464 7.477,-5.195 L -36.559,408.407 c 14.445,7.774 27.244,16.994 36.726,29.576 43.369,57.554 77.149,121.312 93.633,196.522 29.093,132.748 20.734,268.526 24.772,403.2 2.027,67.574 6.788,133.583 33.6,194.77 5.873,13.404 14.756,25.035 22.253,37.482 1.712,-1.185 3.425,-2.37 5.137,-3.555 -5.554,-29.976 -11.11,-59.953 -16.48,-88.926 13.495,30.387 25.694,61.814 40.932,91.116 17.042,32.776 71.042,61.856 96.003,52.982 29.878,-10.622 59.135,-23.569 88.828,-34.921 17.551,-6.709 35.424,-12.282 53.151,-18.366 -0.361,-3.433 -0.724,-6.866 -1.085,-10.298 -19.881,-2.122 -39.761,-4.243 -63.25,-6.75 37.947,-19.94 74.55,-16.456 111.346,-14.86 63.552,2.756 128.688,21.561 190.739,-23.648 4.672,13.383 9,25.781 13.952,39.966 -62.875,14.411 -117.6,40.382 -164.212,85.787 -7.294,7.106 -13.607,19.357 -14.984,30.152 -4.671,36.636 -18.99,67.099 -46.083,84.492 -70.42,45.206 -142.256,87.447 -213.526,130.871 -1.62,-1.46 -3.239,-2.921 -4.858,-4.382 29.668,-36.393 59.337,-72.785 89.663,-109.985 -8.302,-0.56 -16.353,-1.452 -24.415,-1.593 -94.716,-1.655 -160.825,-53.664 -195.234,-155.213 C 103.193,1263.081 91.596,1210.741 79.913,1158.88 55.12,1048.82 39.851,933.997 -42.091,853.615 -0.455,864.229 30.023,894.726 59.897,927.077 45.123,873.626 14.232,836.729 -26.164,810.232 -85.58,771.261 -150.949,757.535 -217.673,763.899 c -102.098,9.739 -203.687,26.422 -305.679,37.955 -50.061,5.661 -100.54,6.366 -150.829,9.325 -5.916,0.347 -11.829,0.764 -17.743,1.15 l -1.141,8.042 c 49.754,18.31 99.508,36.619 146.477,53.903 -61.27,9.061 -144.964,-5.532 -225.684,-38.066 -125.124,-50.43 -235.495,-134.915 -352.103,-204.819 -119.052,-71.368 -240.567,-122.977 -377.859,-100.297 5.323,-3.792 10.531,-6.545 15.963,-8.429 99.676,-34.553 196.489,-12.319 292.628,20.448 78.394,26.72 156.71,53.771 234.747,81.848 7.846,2.822 15.955,12.353 19.77,21.192 15.168,35.15 33.51,66.732 64.627,94.563 -5.767,-31.183 -12.955,-55.982 -14.494,-81.243 -3.377,-55.42 -3.059,-111.13 -5.777,-166.621 -3.974,-81.136 -35.23,-118.399 -104.074,-126.024 -13.949,-1.545 -28.259,0.105 -41.976,-2.614 -7.379,-1.463 -17.648,-7.246 -20.13,-14.194 -19.199,-53.736 -36.813,-108.233 -54.917,-162.494 23.046,29.748 44.859,60.072 63.406,92.877 11.271,19.936 23.333,30.473 44.181,27.676 27.829,-3.733 54.604,-1.789 74.083,26.707 0.534,0.781 2.963,-0.179 6.005,-0.472 -1.902,-6.8 -3.676,-13.141 -5.45,-19.483 1.343,-2.737 2.686,-5.474 4.029,-8.211 41.775,16.931 83.55,33.862 123.967,50.243 -1.706,-3.917 -5.127,-11.767 -11.621,-26.672 15.344,3.276 27.044,2.853 36.246,8.206 64.588,37.568 101.716,146.24 77.784,225.221 -1.606,5.302 -4.102,10.252 -6.292,15.303 -2.789,6.434 -5.688,12.803 -8.54,19.199 7.379,-0.829 17.526,1.591 21.618,-3.097 12.195,-13.967 24.865,-29.171 32.003,-46.803 8.108,-20.028 17.075,-18.282 32.906,-15.308 54.396,10.223 109.163,18.021 163.951,25.027 13.751,1.758 28.112,-2.893 42.194,-4.599 l 0.149,-7.26 c -29.108,-7.241 -58.217,-14.482 -80.026,-19.907 50.849,-8.372 107.495,-17.883 164.22,-26.694 4.63,-0.719 13.399,2.161 14.174,5.351 7.051,29.023 26.247,56.649 9.05,87.509 8.028,3.511 15.054,6.583 23.552,10.299 12.901,-90.467 20.72,-180.137 -7.606,-265.616 -12.777,-38.558 -9.917,-68.285 4.531,-102.161 13.91,-32.609 25.422,-66.593 37.988,-99.973 4.149,47.649 4.733,93.432 3.886,139.179 -0.385,20.733 4.383,33.819 22.766,41.353 18.567,7.61 36.9,17.853 53.171,30.645 19.565,15.381 36.847,34.671 55.116,52.268 z M -1638.446,-55.153 c 172.889,15.242 345.779,30.484 522.518,46.065 -18.74,32.063 -35.72,63.322 -54.752,92.802 -10.538,16.324 -12.504,30.457 -6.541,49.943 25.713,84.029 50.495,168.457 74.407,253.199 5.524,19.58 13.304,29.833 31.698,32.236 27.602,3.604 52.387,15.861 73.7,47.522 -19.216,2.056 -35.119,6.46 -50.594,4.951 -72.494,-7.066 -144.744,-18.604 -217.33,-22.968 -57.52,-3.459 -116.165,-5.349 -172.956,3.61 -105.011,16.564 -183.271,92.27 -233.454,215.452 6.064,-4.499 9.61,-6.549 12.574,-9.41 89.639,-86.567 191.028,-108.535 302.634,-73.996 100.083,30.973 189.573,89.554 280.236,145.038 111.91,68.486 223.477,137.686 346.86,175.97 73.094,22.679 147.266,32.562 227.732,28.229 -46.574,145.785 -152.164,174.729 -260.274,193.906 0,38.646 2.963,76.215 -0.597,112.934 -8.17,84.259 -47.574,147.908 -105.883,196.493 -78.606,65.497 -169.027,94.616 -262.862,112.613 -14.652,2.809 -29.424,4.775 -49.068,7.921 11.439,5.272 18.627,9.102 26.093,11.952 262.342,100.106 527.535,123.969 796.141,37.005 118.86,-38.482 230.343,-95.699 326.765,-187.399 10.013,-9.524 19.015,-20.48 29.771,-32.167 -14.958,-8.717 -27.563,-15.491 -39.711,-23.231 -107.345,-68.397 -151.051,-176.137 -127.447,-315.636 10.082,-59.585 28.203,-115.775 56.069,-168.827 48.837,15.467 86.59,48.32 105.226,99.188 23.093,63.029 38.434,129.988 55.593,195.787 9.317,35.732 14.541,72.875 23.201,108.867 24.707,102.692 68.172,185.891 162.673,206.656 -18.378,49.276 -40.375,96.31 -53.386,146.478 -13.143,50.681 -7.735,103.422 9.672,154.341 2.908,-2.323 4.936,-3.037 5.275,-4.341 28.116,-108.38 94.372,-175.08 179.534,-221.088 29.231,-15.791 58.815,-30.72 87.845,-46.984 50.086,-28.062 90.284,-64.776 89.42,-138.047 -0.082,-6.998 7.921,-15.977 14.039,-20.927 44.477,-35.975 93.918,-55.697 148.269,-58.254 7.311,-0.343 14.619,-0.783 21.585,-1.159 12.686,-68.691 -57.682,-211.024 -141.32,-231.329 17.604,82.967 9.201,94.057 -66.047,92.739 -45.426,-0.796 -91.121,-2.053 -136.241,2.698 -26.009,2.738 -51.113,17.03 -82.758,28.307 -5.362,-26.292 -16.616,-58.739 -17.728,-91.649 -2.327,-68.837 1.123,-137.916 1.406,-206.9 C 293.875,812.021 298.587,730.04 292.134,649.3 279.018,485.175 201.738,368.613 77.117,293.394 59.175,282.563 53.769,272.13 59.172,249.246 c 9.596,-40.641 16.793,-82.073 24.175,-123.37 2.668,-14.928 8.078,-22.151 21.958,-25.203 59.979,-13.189 109.491,-45.872 143.198,-107.29 3.331,-6.07 13.311,-9.419 20.493,-10.133 142.489,-14.151 285.022,-27.721 427.54,-41.478 2.308,-0.222 4.554,-1.298 9.914,-2.896 h -2345.684 c 0.262,1.99 0.526,3.98 0.788,5.971"
             style="fill:#0b1151;fill-opacity:1;fill-rule:nonzero;stroke:none"
             id="path22" /></g><g
           id="g24"
           transform="translate(2390.6943,1927.2319)"><path
             d="M 0,0 C 19.195,-20.153 38.674,-34.111 65.567,-29.895 58.734,4.997 40.335,13.075 0,0 m -532.103,-983.441 c -18.269,-17.597 -35.55,-36.887 -55.116,-52.267 -16.271,-12.792 -34.604,-23.036 -53.171,-30.646 -18.382,-7.534 -23.151,-20.62 -22.766,-41.353 0.847,-45.747 0.263,-91.53 -3.886,-139.179 -12.565,33.38 -24.078,67.364 -37.987,99.973 -14.449,33.876 -17.309,63.603 -4.532,102.161 28.327,85.479 20.507,175.149 7.606,265.616 -8.498,-3.716 -15.524,-6.788 -23.552,-10.299 17.197,-30.86 -1.999,-58.486 -9.05,-87.509 -0.775,-3.19 -9.544,-6.07 -14.173,-5.351 -56.726,8.811 -113.372,18.322 -164.221,26.694 21.809,5.425 50.918,12.666 80.026,19.907 l -0.149,7.26 c -14.081,1.706 -28.443,6.357 -42.194,4.599 -54.788,-7.006 -109.555,-14.804 -163.951,-25.027 -15.831,-2.974 -24.798,-4.72 -32.906,15.308 -7.138,17.632 -19.808,32.836 -32.002,46.803 -4.093,4.688 -14.24,2.268 -21.619,3.097 2.852,-6.396 5.751,-12.765 8.54,-19.199 2.19,-5.051 4.686,-10.001 6.292,-15.303 23.933,-78.981 -13.196,-187.653 -77.784,-225.221 -9.202,-5.353 -20.902,-4.93 -36.246,-8.206 6.494,14.905 9.915,22.755 11.622,26.672 -40.418,-16.381 -82.193,-33.312 -123.968,-50.243 -1.343,2.737 -2.686,5.474 -4.029,8.211 1.774,6.342 3.548,12.683 5.45,19.484 -3.042,0.292 -5.471,1.252 -6.005,0.471 -19.479,-28.496 -46.253,-30.44 -74.083,-26.707 -20.848,2.797 -32.91,-7.74 -44.181,-27.676 -18.547,-32.805 -40.36,-63.129 -63.406,-92.877 18.105,54.261 35.718,108.758 54.917,162.494 2.482,6.948 12.752,12.731 20.13,14.194 13.717,2.719 28.027,1.069 41.976,2.614 68.845,7.625 100.101,44.888 104.075,126.024 2.717,55.491 2.399,111.201 5.776,166.621 1.539,25.261 8.727,50.06 14.495,81.243 -31.118,-27.831 -49.46,-59.413 -64.628,-94.563 -3.815,-8.838 -11.924,-18.37 -19.769,-21.192 -78.037,-28.077 -156.353,-55.128 -234.747,-81.848 -96.14,-32.767 -192.952,-55.001 -292.628,-20.448 -5.432,1.884 -10.641,4.637 -15.964,8.429 137.292,-22.68 258.807,28.929 377.859,100.297 116.609,69.904 226.98,154.389 352.103,204.819 80.72,32.534 164.414,47.127 225.684,38.066 -46.968,-17.284 -96.723,-35.593 -146.477,-53.903 l 1.141,-8.042 c 5.914,-0.386 11.828,-0.803 17.744,-1.15 50.289,-2.959 100.767,-3.664 150.829,-9.325 101.991,-11.533 203.581,-28.216 305.678,-37.955 66.724,-6.364 132.093,7.362 191.509,46.333 40.397,26.497 71.287,63.394 86.062,116.845 -29.874,-32.351 -60.353,-62.847 -101.989,-73.462 81.942,80.382 97.211,195.205 122.004,305.265 11.683,51.861 23.281,104.201 40.136,153.946 34.409,101.549 100.519,153.558 195.234,155.213 8.062,0.141 16.114,1.033 24.415,1.593 -30.326,37.2 -59.995,73.592 -89.663,109.985 1.62,1.461 3.239,2.922 4.858,4.382 71.27,-43.424 143.106,-85.664 213.526,-130.871 27.093,-17.393 41.412,-47.856 46.083,-84.492 1.377,-10.795 7.691,-23.046 14.985,-30.152 46.611,-45.405 101.336,-71.376 164.211,-85.787 -4.952,-14.185 -9.28,-26.583 -13.952,-39.966 -62.05,45.209 -127.187,26.404 -190.739,23.648 -36.796,-1.596 -73.398,-5.08 -111.346,14.86 23.49,2.507 43.37,4.628 63.25,6.75 0.362,3.432 0.724,6.865 1.085,10.298 -17.727,6.084 -35.6,11.657 -53.151,18.366 -29.692,11.352 -58.95,24.299 -88.828,34.921 -24.961,8.874 -78.961,-20.206 -96.003,-52.982 -15.237,-29.302 -27.437,-60.729 -40.932,-91.116 5.37,28.973 10.926,58.95 16.481,88.926 -1.713,1.185 -3.426,2.37 -5.138,3.555 -7.497,-12.447 -16.38,-24.078 -22.253,-37.482 -26.811,-61.187 -31.573,-127.196 -33.599,-194.77 -4.039,-134.674 4.32,-270.452 -24.773,-403.2 -16.483,-75.21 -50.264,-138.968 -93.633,-196.522 -9.482,-12.582 -22.281,-21.802 -36.725,-29.576 l 54.076,137.054 c -2.492,1.731 -4.985,3.464 -7.477,5.195 -4.557,-7.751 -8.39,-16.267 -13.791,-23.125 -32.315,-41.031 -64.615,-82.102 -97.961,-121.991 -4.888,-5.849 -15.326,-5.46 -23.227,-8.022 -0.031,-0.065 0.512,0.813 0.512,0.813"
             style="fill:#ffffff;fill-opacity:1;fill-rule:nonzero;stroke:none"
             id="path26" /></g><g
           id="g28"
           transform="translate(1714.2422,550.9346)"><path
             d="m 0,0 c -49.614,0 -94.204,-0.457 -138.771,0.534 -6.085,0.136 -13.809,5.891 -17.795,11.764 -31.106,45.83 -72.675,68.656 -121.509,74.368 -15.637,1.829 -22.408,9.354 -27.506,26.122 -17.196,56.572 -17.84,56.315 20.37,94.482 17.477,17.457 34.967,34.894 53.966,53.852 -20.933,22.737 -36.323,39.455 -51.713,56.172 1.129,1.773 2.259,3.548 3.389,5.321 20.68,-9.719 40.805,-21.756 62.166,-28.631 34.132,-10.986 69.154,-18.207 103.631,-27.829 7.185,-2.004 17.507,-5.558 19.846,-11.729 C -62.424,171.281 -32.081,87.547 0,0"
             style="fill:#ffffff;fill-opacity:1;fill-rule:nonzero;stroke:none"
             id="path30" /></g><g
           id="g32"
           transform="translate(1063.5073,2129.8477)"><path
             d="m 0,0 c 279.2,48.7 545.952,19.094 788.329,-168.344 -95.681,-131.503 -111.515,-250.681 -62.187,-457.758 -29.47,41.601 -48.317,111.493 -57.688,213.919 -2.179,0.724 -4.358,1.448 -6.537,2.171 -8.801,-39.234 -17.602,-78.468 -25.099,-111.891 -13.92,73.761 -4.83,234.785 43.56,310.845 9.638,15.148 0.92,22.496 -7.031,30.853 C 626.61,-131.083 571.499,-98.503 512.744,-74.333 360.387,-11.657 202.873,10.093 41.893,2.417 27.923,1.75 13.964,0.812 0,0"
             style="fill:#ffffff;fill-opacity:1;fill-rule:nonzero;stroke:none"
             id="path34" /></g><g
           id="g36"
           transform="translate(1217.5708,772.543)"><path
             d="m 0,0 c -7.282,-29.332 -14.067,-56.662 -21.989,-88.569 40.548,-40.836 83.76,-84.356 126.972,-127.875 -0.46,-2.881 -0.919,-5.762 -1.379,-8.643 -30.009,0 -60.023,0.369 -90.027,-0.09 -40.474,-0.619 -80.939,-2.247 -121.411,-2.48 -6.521,-0.038 -16.437,2.645 -19.077,7.916 -27.711,55.313 -70.367,84.595 -126.717,97.853 18.893,39.484 36.36,76.956 54.956,113.659 2.418,4.773 10.637,7.832 16.196,7.883 C -123.423,0.212 -64.365,0 0,0"
             style="fill:#ffffff;fill-opacity:1;fill-rule:nonzero;stroke:none"
             id="path38" /></g><g
           id="g40"
           transform="translate(1983.0176,545.46)"><path
             d="m 0,0 c -17.985,-6.849 -29.01,-0.886 -39.417,14.987 -26.844,40.941 -62.262,67.56 -105.513,80.689 -6.907,2.096 -16.412,10.933 -17.398,18.024 -6.035,43.349 -9.959,87.092 -14.5,129.897 36.949,23.088 41.232,21.984 60.923,-16.087 C -80.657,159.355 -45.56,91.097 -10.483,22.822 -6.842,15.735 -3.772,8.254 0,0"
             style="fill:#ffffff;fill-opacity:1;fill-rule:nonzero;stroke:none"
             id="path42" /></g><g
           id="g44"
           transform="translate(2390.6943,1927.2319)"><path
             d="M 0,0 C 40.335,13.075 58.734,4.997 65.567,-29.895 38.674,-34.111 19.195,-20.153 0,0"
             style="fill:#0b1151;fill-opacity:1;fill-rule:nonzero;stroke:none"
             id="path46" /></g><g
           id="g48"
           transform="translate(1858.5918,943.791)"><path
             d="M 0,0 C 0,0 -0.544,-0.878 -0.513,-0.813 -0.481,-0.748 0,0 0,0"
             style="fill:#ffffff;fill-opacity:1;fill-rule:nonzero;stroke:none"
             id="path50" /></g></g></g></g></svg>
